<svg width="1152" height="991" viewBox="0 0 1152 991" fill="none" xmlns="http://www.w3.org/2000/svg">
<g clip-path="url(#clip0)">
<rect width="1152" height="991" fill="#FAF7F2"/>
<path d="M433.868 236.376C328.594 224.344 247.296 282.543 206.672 376.96C202.445 374.756 198.076 372.782 193.819 370.867C168.89 359.648 143.664 511.868 136.589 533.337C133.03 544.136 127.828 555.08 128.004 566.721C128.339 588.824 139.545 607.451 150.261 626.177C184.268 685.604 221.126 743.501 251.049 805.18C254.873 813.061 254.319 819.488 262.972 819.488C289.264 819.488 315.394 820.489 341.664 822.031C569.449 835.408 796.7 845.241 1024.93 845.241C1039.27 845.241 1072.4 851.313 1086.77 844.129C1102.17 836.426 1111.94 804.656 1117.45 791.35C1149.76 713.389 1172.27 630.602 1192.8 548.916C1207.64 489.902 1220.85 430.685 1226.67 370.072C1235.83 274.618 1127.14 207.23 1053.7 167.858C966.573 121.144 873.286 148.744 795.849 201.402C746.505 234.956 698.993 281.524 635.763 281.524C607.058 281.524 578.317 282.087 550.395 274.211C512.02 263.387 473.463 240.901 433.868 236.376Z" fill="#DBBBA8"/>
<path d="M164.745 306.888C116.092 274.787 39.6314 269.467 -18.8602 277.8C-18.4999 292.198 -17.1442 307.181 -17.1442 314.293C-17.1442 361.383 -49.8546 395.709 -67.129 436.015C-84.1763 475.793 -84.7868 510.602 -88.1874 553.109C-90.5312 582.407 -114.133 597.739 -129.147 621.144C-152.063 656.867 -154.33 698.361 -151.825 739.627C-148.149 800.204 -142.648 864.044 -127.99 923.135C-107.042 1007.58 -82.2811 1087.48 -75.9226 1174.91C-73.7831 1204.33 -74.1791 1206.28 -46.7648 1200.6C105.727 1168.97 259.111 1156.56 414.669 1155.7C462.207 1155.44 510.696 1157.52 558.143 1153.16C572.956 1151.8 577.029 1150.58 580.359 1136.73C592.375 1086.74 600.552 1035.54 610.674 985.154C629.141 893.225 647.529 801.186 667.369 709.543C669.456 699.906 683.705 666.32 676.163 654.467C672.156 648.17 652.867 646.78 646.774 645.442C608.202 636.975 570.829 625.072 534.077 610.499C454.262 578.853 375.587 534.759 319.79 467.95C273.692 412.754 225.203 346.778 164.745 306.888Z" fill="#E7D0C0"/>
<path d="M-69.4123 875.568C-103.467 894.267 -116.07 930.84 -119.127 969.853C-117.772 972.244 -116.599 974.774 -115.709 977.514C-107.995 1001.26 -95.01 1023.26 -87.1419 1047.48C-78.9162 1072.79 -65.1199 1103.83 -67.5631 1129.68C-72.3292 1180.12 -52.2365 1231.08 -56.3661 1281.87C-58.7297 1310.94 -43.9488 1342.04 -35.1238 1369.2C-30.0828 1384.71 -4.93325 1470.54 10.7575 1474.49C19.6488 1476.72 40.393 1466.19 47.8005 1463.78C186.601 1418.69 320.431 1366.45 448.706 1295.9C551.747 1239.23 650.497 1174.1 758.608 1127.28C849.635 1087.86 945.001 1058.66 1038.72 1026.61C1117.27 999.752 1196.28 973.636 1273.48 943.006C1281.11 939.981 1295.07 935.2 1302.61 928.882C1327.72 907.825 1298.59 813.747 1294.05 792.815C1270.72 685.021 1239.78 579.935 1219.75 471.344C1196.09 343.094 1303.54 189.905 1273.48 62.9251C1271.31 53.7342 1148 53 1129.19 62.9251C1095 82.5 1089.75 100.638 1073.39 121.675C1037.8 167.465 1021.36 218.58 1001.9 272.764C987.973 311.531 974.539 351.211 938.689 374.543C852.43 430.682 731.383 414.933 638.239 459.513C561.788 496.103 539.198 559.965 508.393 633.555C476.721 709.215 412.421 758.526 340.907 792.525C241.427 839.819 138.452 868.863 28.6238 859.031C-6.4049 855.895 -38.4494 858.568 -69.4123 875.568Z" fill="#EDDBCE"/>
</g>
<defs>
<clipPath id="clip0">
<rect width="1152" height="991" fill="white"/>
</clipPath>
</defs>
</svg>
