<svg width="1152" height="991" viewBox="0 0 1152 991" fill="none" xmlns="http://www.w3.org/2000/svg">
<g clip-path="url(#clip0)">
<rect width="1152" height="991" fill="#FAF7F2"/>
<path fill-rule="evenodd" clip-rule="evenodd" d="M0 553.374L48 572.924C96 592.474 192 631.575 288 607.137C384 582.699 480 494.724 576 484.949C672 475.174 768 543.599 864 568.037C960 592.474 1056 572.924 1104 563.149L1152 553.374V700H1104C1056 700 960 700 864 700C768 700 672 700 576 700C480 700 384 700 288 700C192 700 96 700 48 700H0V553.374Z" fill="#F4DF90"/>
<path fill-rule="evenodd" clip-rule="evenodd" d="M0 889.917L48 894.031C96 897.459 192 905.686 288 897.459C384 889.917 480 865.92 576 846.037C672 826.84 768 810.385 864 818.612C960 826.84 1056 858.378 1104 874.148L1152 889.917V700H1104C1056 700 960 700 864 700C768 700 672 700 576 700C480 700 384 700 288 700C192 700 96 700 48 700H0V889.917Z" fill="#F4DF90"/>
<ellipse cx="77.5" cy="397" rx="327.5" ry="333" fill="#77B17D"/>
</g>
<defs>
<clipPath id="clip0">
<rect width="1152" height="991" fill="white"/>
</clipPath>
</defs>
</svg>
