<svg width="135" height="117" viewBox="0 0 135 117" fill="none" xmlns="http://www.w3.org/2000/svg">
<path d="M22.5228 3.85431C24.1266 4.23933 25.4939 4.7525 26.9431 5.6243C32.4843 8.95768 37.9513 12.5214 43.3227 16.1859C51.3593 21.6687 59.3022 27.4268 66.2007 34.7284C73.1555 42.0897 79.4364 50.4031 85.1978 59.0934C96.3025 75.8434 104.996 95.0278 112.516 114.516" stroke="#77B17D" stroke-width="2.5" stroke-linecap="round" stroke-linejoin="round"/>
<path d="M101.91 92.6869C100.992 92.1878 100.303 91.0146 99.5432 90.2634C72.1424 63.1924 35.0782 47.2178 22.3048 3.52604C38.5857 1.10748 58.8077 15.2621 71.6514 23.1538C78.7585 27.5207 112.611 64.3285 104.118 95.0516C104.104 95.0584 102.179 92.8332 101.91 92.6869Z" stroke="#77B17D" stroke-width="2.5" stroke-linecap="round" stroke-linejoin="round"/>
<path d="M45.1767 12.6099C46.0173 13.5584 52.6193 22.5746 52.3992 22.7399C48.1699 25.9159 44.9963 25.4749 40.5398 25.7332" stroke="#77B17D" stroke-width="2.5" stroke-linecap="round" stroke-linejoin="round"/>
<path d="M64.6303 22.5326C66.4558 26.7603 69.2908 31.4298 69.0097 36.6457C68.9743 37.3021 69.2024 37.4814 68.5183 37.4492C62.2539 37.1546 55.8322 39.2182 49.5779 37.7167C49.2744 37.6438 48.3284 37.2133 48.1173 37.5042" stroke="#77B17D" stroke-width="2.5" stroke-linecap="round" stroke-linejoin="round"/>
<path d="M83.7915 40.8165C85.4325 46.2135 87.8794 53.7019 86.0729 59.8856C85.9793 60.2058 83.5591 59.4203 83.2911 59.356C77.1459 57.8806 67.6868 56.7419 62.3584 52.9483" stroke="#77B17D" stroke-width="2.5" stroke-linecap="round" stroke-linejoin="round"/>
<path d="M95.5118 61.046C95.8114 66.1307 96.6013 70.741 95.3698 75.8704C95.33 76.0361 94.027 78.3971 84.358 72.743" stroke="#77B17D" stroke-width="2.5" stroke-linecap="round" stroke-linejoin="round"/>
</svg>
