<svg width="134" height="116" viewBox="0 0 134 116" fill="none" xmlns="http://www.w3.org/2000/svg">
<path d="M112.171 4.13007C110.575 4.51338 109.213 5.02428 107.77 5.89222C102.254 9.21084 96.811 12.7588 91.4634 16.4071C83.4624 21.8656 75.5546 27.5982 68.6867 34.8674C61.7627 42.1961 55.5095 50.4728 49.7736 59.1246C38.7181 75.8004 30.0631 94.8998 22.5767 114.302" stroke="#77B17D" stroke-width="2.5" stroke-linecap="round" stroke-linejoin="round"/>
<path d="M33.1358 92.5693C34.0496 92.0724 34.7351 90.9043 35.492 90.1565C62.7714 63.2054 99.6715 47.3015 112.388 3.80321C96.1795 1.39536 76.0471 15.4873 63.2602 23.3441C56.1846 27.6917 22.4815 64.3364 30.9372 94.9235C30.9516 94.9303 32.8681 92.7149 33.1358 92.5693Z" stroke="#77B17D" stroke-width="2.5" stroke-linecap="round" stroke-linejoin="round"/>
<path d="M89.6177 12.8468C88.7808 13.7912 82.2081 22.7674 82.4273 22.932C86.6378 26.094 89.7974 25.6549 94.2341 25.9121" stroke="#77B17D" stroke-width="2.5" stroke-linecap="round" stroke-linejoin="round"/>
<path d="M70.2501 22.7257C68.4327 26.9347 65.6102 31.5834 65.8901 36.7763C65.9253 37.4297 65.6982 37.6082 66.3793 37.5762C72.616 37.2829 79.0092 39.3374 85.2359 37.8425C85.5379 37.77 86.4798 37.3414 86.69 37.631" stroke="#77B17D" stroke-width="2.5" stroke-linecap="round" stroke-linejoin="round"/>
<path d="M51.1738 40.9286C49.5401 46.3016 47.104 53.757 48.9026 59.9132C48.9957 60.232 51.4052 59.45 51.672 59.386C57.7901 57.9172 67.2073 56.7835 72.5121 53.0066" stroke="#77B17D" stroke-width="2.5" stroke-linecap="round" stroke-linejoin="round"/>
<path d="M39.5054 61.0685C39.2072 66.1306 38.4208 70.7206 39.6468 75.8273C39.6864 75.9923 40.9837 78.3427 50.6099 72.7137" stroke="#77B17D" stroke-width="2.5" stroke-linecap="round" stroke-linejoin="round"/>
</svg>
